<?xml version="1.0" encoding="UTF-8" standalone="no"?>
<svg
   viewBox="124.336 151.578 251.328 196.843"
   version="1.1"
   id="svg911"
   sodipodi:docname="jalogo.svg"
   inkscape:version="1.1.2 (b8e25be8, 2022-02-05)"
   xmlns:inkscape="http://www.inkscape.org/namespaces/inkscape"
   xmlns:sodipodi="http://sodipodi.sourceforge.net/DTD/sodipodi-0.dtd"
   xmlns="http://www.w3.org/2000/svg"
   xmlns:svg="http://www.w3.org/2000/svg">
  <defs
     id="defs915">
    <pattern
       inkscape:collect="always"
       patternUnits="userSpaceOnUse"
       width="2"
       height="1"
       patternTransform="translate(0,0) scale(10,10)"
       id="Strips1_1"
       inkscape:stockid="Stripes 1:1">
      <rect
         style="fill:black;stroke:none"
         x="0"
         y="-0.5"
         width="1"
         height="2"
         id="rect2721" />
    </pattern>
    <inkscape:path-effect
       effect="envelope"
       id="path-effect1020"
       is_visible="true"
       lpeversion="1"
       yy="true"
       xx="true"
       bendpath1="M 164.37727,201.72478 H 324.19572"
       bendpath2="m 324.64719,201.72478 v 92.49889"
       bendpath3="M 164.37727,294.22367 H 324.64719"
       bendpath4="m 164.37727,201.72478 v 92.49889"
       bendpath1-nodetypes="cc" />
  </defs>
  <sodipodi:namedview
     id="namedview913"
     pagecolor="#ffffff"
     bordercolor="#cccccc"
     borderopacity="1"
     inkscape:pageshadow="0"
     inkscape:pageopacity="1"
     inkscape:pagecheckerboard="0"
     showgrid="false"
     inkscape:zoom="2.2149632"
     inkscape:cx="125.73573"
     inkscape:cy="98.421501"
     inkscape:window-width="1280"
     inkscape:window-height="700"
     inkscape:window-x="0"
     inkscape:window-y="25"
     inkscape:window-maximized="0"
     inkscape:current-layer="svg911" />
  <g
     id="g1018"
     inkscape:path-effect="#path-effect1020"
     transform="matrix(1.4841056,0,0,1.9584332,-112.9593,-234.3144)"
     style="stroke:url(#Strips1_1);stroke-width:1.4;stroke-miterlimit:4;stroke-dasharray:none;stroke-opacity:1;paint-order:fill markers stroke">
    <g
       aria-label="JA"
       transform="scale(1.0520396,0.95053457)"
       id="text909"
       style="font-size:133.666px;font-family:Arial, sans-serif;white-space:pre;fill:#000080;stroke:url(#Strips1_1);stroke-width:1.4;stroke-miterlimit:4;stroke-dasharray:none;stroke-opacity:1;paint-order:fill markers stroke">
      <path
         d="m 156.09989,280.54016 c 0.0918,-0.0126 11.32783,-1.55381 11.41959,-1.56639 0.30442,7.30991 1.67471,12.31356 4.11099,15.01131 2.43623,2.69768 5.80788,4.04653 10.11434,4.04653 3.17547,0 5.91564,-0.71794 8.22039,-2.1538 2.30474,-1.47938 3.89141,-3.45912 4.76036,-5.93926 0.8689,-2.5235 1.30258,-6.5268 1.30119,-12.00905 -0.006,-21.97309 -0.0102,-43.94618 -0.0837,-65.91927 4.207,0 8.41356,0 12.62019,0 0.098,21.73378 0.10723,43.46756 0.11663,65.20134 0.003,8.0055 -0.97183,14.20689 -2.92577,18.60098 -1.91068,4.39465 -4.97424,7.74494 -9.19239,10.05105 -4.17458,2.30608 -9.09047,3.45913 -14.74687,3.45913 -8.39759,0 -14.83797,-2.41487 -19.31939,-7.24459 -4.43777,-4.82958 -6.56954,-12.0092 -6.39552,-21.53798 z"
         id="path992"
         inkscape:original-d="m 156.25613,280.75238 11.42165,-1.56639 q 0.45687,10.96478 4.1118,15.01131 3.65493,4.04653 10.11632,4.04653 4.76446,0 8.22359,-2.1538 3.45913,-2.21906 4.76446,-5.93926 1.30534,-3.78546 1.30534,-12.00905 v -65.91927 h 12.66172 v 65.20134 q 0,12.00905 -2.937,18.60098 -2.87173,6.59193 -9.20259,10.05105 -6.2656,3.45913 -14.75025,3.45913 -12.59646,0 -19.31892,-7.24459 -6.65719,-7.24459 -6.39612,-21.53798 z"
         style="stroke:url(#Strips1_1);stroke-width:1.4;stroke-miterlimit:4;stroke-dasharray:none;stroke-opacity:1;paint-order:fill markers stroke" />
      <path
         d="m 218.88319,307.69107 c 10.61968,-27.77371 26.06759,-67.90713 36.47949,-95.68084 4.53971,0 9.08163,0 13.62636,0 15.19827,36.30991 24.50876,59.37093 39.43931,95.68084 -4.80837,0 -9.61664,0 -14.42482,0 -1.41695,-3.65625 -9.77827,-25.32213 -11.19522,-28.97837 -13.34509,0 -26.68086,0 -40.01221,0 2.3829,-6.58869 -12.85164,35.56706 -10.46874,28.97837 -4.48141,0 -8.96279,0 -13.44417,0 z m 27.55775,-39.29049 c 10.80895,0 21.62216,0 32.44313,0 -3.3646,-8.90498 -6.65337,-17.59326 -10.03997,-26.49824 -3.07327,-8.04871 -5.37205,-14.66408 -6.88499,-19.84105 -1.17677,6.13513 -2.86692,12.22654 -5.06545,18.27465 -3.43524,9.25894 -6.99594,18.8057 -10.45272,28.06464 z"
         id="path994"
         inkscape:original-d="m 219.0426,307.90329 36.74509,-95.68084 h 13.64072 l 39.15996,95.68084 h -14.42392 l -11.16058,-28.97837 h -40.00843 l -10.50792,28.97837 z m 27.60777,-39.29049 h 32.4375 l -9.98579,-26.49824 q -4.56866,-12.07433 -6.78773,-19.84105 -1.82746,9.20259 -5.15606,18.27465 z"
         style="stroke:url(#Strips1_1);stroke-width:1.4;stroke-miterlimit:4;stroke-dasharray:none;stroke-opacity:1;paint-order:fill markers stroke" />
    </g>
  </g>
</svg>
