<?xml version="1.0" encoding="utf-8"?>
<svg viewBox="22.883 179.884 471.261 267.427" xmlns="http://www.w3.org/2000/svg" xmlns:bx="https://boxy-svg.com">
  <path style="fill: rgb(255, 255, 255); stroke-width: 10px; stroke: rgb(0, 0, 0);" d="M 149.876 217.001 H 342.704 A 0.524 0.524 0 0 1 343.228 217.525 V 401.616 A 0.524 0.524 0 0 1 342.704 402.14 H 149.876 A 3.552 3.552 0 0 1 146.324 398.588 V 220.553 A 3.552 3.552 0 0 1 149.876 217.001 Z" bx:shape="rect 146.324 217.001 196.904 185.139 3.552 0.524 0.524 3.552 1@e39e93fd"/>
  <path d="M 407.802 147.357 L 434.095 167.373 L 466.293 175.246 L 466.881 208.079 L 480.739 237.913 L 455.18 258.839 L 440.262 288.167 L 407.802 281.429 L 375.342 288.167 L 360.424 258.839 L 334.865 237.913 L 348.723 208.079 L 349.311 175.246 L 381.509 167.373 Z" style="fill: rgb(255, 255, 255); stroke-width: 10px; stroke: rgb(0, 0, 0);" transform="matrix(-0.810796, 0.585329, -0.560535, -0.828695, 698.360694, 254.254029)" bx:shape="star 407.802 221.43 74.813 74.073 0.81 7 1@18dabd70"/>
  <rect style="fill: rgb(255, 255, 255); stroke-width: 10px; stroke: rgb(0, 0, 0);" x="145.296" y="401.376" width="201.038" height="17.476" rx="10" ry="10"/>
  <rect style="fill: rgb(255, 255, 255); stroke-width: 2px; stroke: rgb(0, 0, 0);" x="181.391" y="407.22" width="164.57" height="4.305" rx="2.5" ry="2.5"/>
</svg>