<?xml version="1.0" encoding="utf-8"?>
<svg viewBox="22.883 179.884 471.261 267.427" xmlns="http://www.w3.org/2000/svg">
  <rect style="stroke-width: 2px; stroke: rgb(255, 255, 255);" x="171.842" y="413.277" width="48.804" height="6.846" rx="2.193" ry="2.193"/>
  <path style="stroke-width: 2px; stroke: rgb(255, 255, 255);" d="M 231.86 415.43 L 373.774 415.43 L 373.774 419.419 C 373.774 420.57 372.732 421.504 371.447 421.504 L 234.186 421.504 C 232.901 421.504 231.86 420.57 231.86 419.419 L 231.86 415.43 Z"/>
  <rect style="stroke-width: 2px; stroke: rgb(255, 255, 255);" x="99.827" y="263.861" width="203.214" height="124.925" rx="4" ry="4"/>
  <rect x="119.329" y="276.646" width="166.083" height="83.083" style="stroke-width: 2px; stroke: rgb(255, 255, 255);"/>
  <rect style="fill: rgb(255, 255, 255); stroke-width: 2px; stroke: rgb(255, 255, 255);" transform="matrix(0.972349, 0.233531, -0.286845, 0.959545, 211.81871, 86.874611)" x="62.593" y="299.406" width="1.402" height="24.443" rx="2" ry="2"/>
  <rect style="stroke-width: 2px; stroke: rgb(255, 255, 255);" transform="matrix(0.972349, -0.233532, 0.286846, 0.959545, 65.408234, 116.835175)" x="51.202" y="296.526" width="0.999" height="24.071" rx="2" ry="2"/>
  <rect style="stroke-width: 2px; stroke: rgb(255, 255, 255);" x="88.968" y="378.481" width="35.868" height="44.474" rx="6" ry="6"/>
  <rect x="88.733" y="410.899" width="35.689" height="0.46" style="fill: rgb(216, 216, 216); stroke: rgb(255, 255, 255);"/>
  <ellipse style="stroke-width: 2px; stroke: rgb(255, 255, 255);" cx="77.932" cy="380.215" rx="22.098" ry="18.967"/>
  <ellipse style="fill: rgb(255, 255, 255); stroke-width: 2px; stroke: rgb(255, 255, 255);" cx="100.424" cy="400.331" rx="2.246" ry="2.195"/>
  <rect x="107.817" y="397.141" width="11.437" height="0.592" style="fill: rgb(216, 216, 216); stroke: rgb(255, 255, 255);"/>
  <rect x="108.253" y="400.568" width="5.891" height="0.592" style="fill: rgb(216, 216, 216); stroke: rgb(255, 255, 255);"/>
  <rect x="108.194" y="404.42" width="4.204" height="0.592" style="fill: rgb(216, 216, 216); stroke: rgb(255, 255, 255);"/>
  <ellipse style="fill: rgb(216, 216, 216); stroke-width: 2px; stroke: rgb(255, 255, 255);" cx="107.353" cy="418.575" rx="1.241" ry="1.241"/>
  <ellipse style="fill: rgb(255, 255, 255); stroke-width: 2px; stroke: rgb(255, 255, 255);" cx="193.37" cy="376.88" rx="2.403" ry="2.073"/>
  <rect style="stroke-width: 2px; stroke: rgb(255, 255, 255);" x="235.8" y="331.38" width="129.402" height="83.806" rx="4" ry="4"/>
  <rect x="245.763" y="341.091" width="107.459" height="66.07" style="stroke-width: 2px; stroke: rgb(255, 255, 255);"/>
  <rect style="stroke-width: 2px; stroke: rgb(255, 255, 255);" x="130.782" y="237.077" width="92.333" height="83.58" rx="4" ry="4"/>
  <rect x="130.741" y="246.514" width="91.929" height="0.421" style="stroke-width: 2px; fill: rgb(255, 255, 255); stroke: rgb(255, 255, 255);"/>
  <ellipse style="fill: rgb(255, 255, 255); stroke-width: 2px; stroke: rgb(255, 255, 255);" cx="139.402" cy="243.033" rx="1.376" ry="1.031"/>
  <ellipse style="fill: rgb(255, 255, 255); stroke-width: 2px; stroke: rgb(255, 255, 255);" cx="149.237" cy="243.117" rx="1.376" ry="1.031"/>
  <ellipse style="fill: rgb(255, 255, 255); stroke-width: 2px; stroke: rgb(255, 255, 255);" cx="160.493" cy="243.241" rx="1.376" ry="1.031"/>
  <text style="white-space: pre; fill: rgb(51, 51, 51); font-family: Arial, sans-serif; font-size: 23.9px;" x="48.705" y="319.644" transform="matrix(0.775449, 0, 0, 0.695061, 42.144009, 112.04628)"> </text>
  <text style="fill: rgb(255, 255, 255); font-family: Arial, sans-serif; font-size: 23.9px; stroke: rgb(255, 255, 255); white-space: pre;" transform="matrix(0.775449, 0, 0, 0.695061, 39.001854, 112.746201)" x="30.977" y="390.258">&lt;/&gt;</text>
  <rect x="102.739" y="386.4" width="21.309" height="0.409" style="fill: rgb(216, 216, 216); stroke: rgb(255, 255, 255);"/>
  <rect x="104.093" y="383.152" width="14.801" height="0.315" style="fill: rgb(216, 216, 216); stroke: rgb(255, 255, 255);"/>
  <rect style="stroke-width: 2px; stroke: rgb(255, 255, 255);" x="324.267" y="293.767" width="79.832" height="71.253" rx="4" ry="4"/>
  <rect style="fill: rgb(255, 255, 255); stroke-width: 2px; stroke: rgb(255, 255, 255);" x="331.415" y="310.702" width="9.8" height="9.652" rx="4" ry="4"/>
  <rect style="fill: rgb(255, 255, 255); stroke-width: 2px; stroke: rgb(255, 255, 255);" x="331.489" y="325.929" width="9.8" height="9.652" rx="4" ry="4"/>
  <rect style="fill: rgb(255, 255, 255); stroke-width: 2px; stroke: rgb(255, 255, 255);" x="331.429" y="342.378" width="9.8" height="9.652" rx="4" ry="4"/>
  <ellipse style="fill: rgb(255, 255, 255); stroke-width: 2px; stroke: rgb(0, 0, 0);" cx="369.858" cy="327.06" rx="13.595" ry="13.082"/>
  <rect x="367.214" y="312.038" width="4.69" height="3.574" style="fill: rgb(255, 255, 255); stroke-width: 2px; stroke: rgb(255, 255, 255);"/>
  <rect x="354.248" y="324.71" width="4.69" height="3.574" style="fill: rgb(255, 255, 255); stroke-width: 2px; stroke: rgb(255, 255, 255);"/>
  <rect x="367.558" y="337.445" width="4.69" height="3.574" style="fill: rgb(255, 255, 255); stroke-width: 2px; stroke: rgb(255, 255, 255);"/>
  <rect x="380.276" y="324.803" width="4.69" height="3.574" style="fill: rgb(216, 216, 216); stroke-width: 2px; stroke: rgb(255, 255, 255);"/>
  <rect style="fill: rgb(255, 255, 255); stroke-width: 2px; stroke: rgb(255, 255, 255);" x="383.071" y="313.879" width="0.748" height="27.615" rx="1.4" ry="1.4"/>
  <rect x="139.059" y="256.644" width="8" height="0.277" style="fill: rgb(216, 216, 216); stroke: rgb(255, 255, 255);"/>
  <rect x="152.197" y="256.742" width="4.736" height="0.592" style="fill: rgb(216, 216, 216); stroke: rgb(255, 255, 255);"/>
  <rect x="142.518" y="262.588" width="3.694" height="0.192" style="fill: rgb(216, 216, 216); stroke: rgb(255, 255, 255);"/>
  <rect x="143.276" y="267.595" width="4.12" height="0.142" style="fill: rgb(216, 216, 216); stroke: rgb(0, 0, 0);"/>
  <rect x="141.111" y="275.772" width="8.455" height="0.146" style="fill: rgb(216, 216, 216); stroke: rgb(255, 255, 255);"/>
  <rect x="144.022" y="282.656" width="4.379" height="0.157" style="fill: rgb(216, 216, 216); stroke: rgb(255, 255, 255);"/>
  <rect x="144.536" y="291.235" width="3.059" height="0.592" style="fill: rgb(216, 216, 216); stroke: rgb(255, 255, 255);"/>
  <rect x="145.765" y="299.446" width="4.887" height="0.592" style="fill: rgb(216, 216, 216); stroke: rgb(255, 255, 255);"/>
  <rect x="150.682" y="266.498" width="18.53" height="0.537" style="fill: rgb(216, 216, 216); stroke: rgb(255, 255, 255);"/>
  <rect x="154.077" y="277.373" width="10.483" height="0.157" style="fill: rgb(216, 216, 216); stroke: rgb(255, 255, 255);"/>
  <rect x="156.614" y="282.936" width="5.451" height="0.592" style="fill: rgb(216, 216, 216); stroke: rgb(255, 255, 255);"/>
  <rect x="155.408" y="288.358" width="7.252" height="0.592" style="fill: rgb(216, 216, 216); stroke: rgb(255, 255, 255);"/>
  <rect x="154.006" y="295.362" width="15.481" height="0.592" style="fill: rgb(216, 216, 216); stroke: rgb(255, 255, 255);"/>
  <rect x="159.282" y="301.77" width="8.589" height="0.592" style="fill: rgb(216, 216, 216); stroke: rgb(255, 255, 255);"/>
  <rect x="159.548" y="263.031" width="12.378" height="0.592" style="fill: rgb(216, 216, 216); stroke: rgb(255, 255, 255);"/>
  <rect x="166.372" y="257.494" width="10.184" height="0.314" style="fill: rgb(216, 216, 216); stroke: rgb(255, 255, 255);"/>
  <rect x="171.643" y="277.714" width="7.232" height="0.746" style="fill: rgb(216, 216, 216); stroke: rgb(255, 255, 255);"/>
  <rect x="170.776" y="285.875" width="11.08" height="0.525" style="fill: rgb(216, 216, 216); stroke: rgb(255, 255, 255);"/>
  <rect x="170.641" y="294.466" width="15.716" height="0.592" style="fill: rgb(216, 216, 216); stroke: rgb(255, 255, 255);"/>
  <rect x="324.177" y="302.423" width="80.185" height="0.226" style="fill: rgb(216, 216, 216); stroke-width: 2px; stroke: rgb(255, 255, 255);"/>
  <ellipse style="fill: rgb(255, 255, 255); stroke-width: 2px; stroke: rgb(255, 255, 255);" cx="332.603" cy="298.636" rx="1.694" ry="1.593"/>
  <ellipse style="fill: rgb(255, 255, 255); stroke-width: 2px; stroke: rgb(255, 255, 255);" cx="343.195" cy="298.837" rx="1.694" ry="1.593"/>
  <ellipse style="fill: rgb(255, 255, 255); stroke-width: 2px; stroke: rgb(255, 255, 255);" cx="352.919" cy="298.666" rx="1.694" ry="1.593"/>
  <path style="fill: rgb(255, 255, 255); stroke: rgb(255, 255, 255);" d="M 290.218 415.612 L 307.747 415.612 L 307.747 417.074 C 307.747 417.88 307.018 418.534 306.119 418.534 L 291.847 418.534 C 290.947 418.534 290.218 417.88 290.218 417.074 L 290.218 415.612 Z"/>
  <path style="stroke-width: 2px; stroke: rgb(255, 255, 255);" d="M 390.937 394.677 L 415.825 394.677 L 415.825 412.569 C 415.825 416.407 412.354 419.519 408.071 419.519 L 398.692 419.519 C 394.409 419.519 390.937 416.407 390.937 412.569 L 390.937 394.677 Z"/>
  <rect style="fill: rgb(255, 255, 255); stroke-width: 2px; stroke: rgb(0, 0, 0);" x="405.181" y="405.202" width="4.53" height="6.287" rx="2.9" ry="2.9"/>
  <rect x="-407.396" y="395.597" width="0.09" height="10.434" style="fill: rgb(255, 255, 255); stroke: rgb(255, 255, 255);" transform="matrix(-1, 0, 0, 1, 0, 0)"/>
  <rect x="351.201" y="287.37" width="0.159" height="6.47" style="fill: rgb(255, 255, 255); stroke: rgb(255, 255, 255);" transform="matrix(-0.819119, -0.573624, 0.660781, -0.758083, 498.776489, 813.577148)"/>
  <rect x="359.546" y="280.701" width="0.163" height="6.32" style="stroke-width: 2px; stroke: rgb(255, 255, 255); fill: rgb(255, 255, 255);" transform="matrix(0.934638, -0.355601, 0.429329, 0.906587, -51.485279, 261.923309)"/>
  <path style="fill: rgb(255, 255, 255); stroke: rgb(0, 0, 0);" d="M 414.903 398.9 L 420.132 398.9 C 423.002 398.9 425.328 400.985 425.328 403.557 L 425.328 405.513 C 425.328 408.085 423.002 410.17 420.132 410.17 L 414.903 410.17 L 414.903 398.9 Z"/>
  <path style="fill: rgb(255, 255, 255); stroke: rgb(255, 255, 255);" d="M 415.593 400.289 L 419.395 400.289 C 421.495 400.289 423.197 402.162 423.197 404.472 C 423.197 406.782 421.495 408.655 419.395 408.655 L 415.593 408.655 L 415.593 400.289 Z"/>
</svg>